<svg xmlns="http://www.w3.org/2000/svg" viewBox="0 0 1920 1080" role="img" aria-label="Tetris Hands arcade cockpit poster">
  <defs>
    <linearGradient id="bg" x1="0" y1="0" x2="1" y2="1">
      <stop offset="0" stop-color="#07131f"/>
      <stop offset="0.48" stop-color="#02060a"/>
      <stop offset="1" stop-color="#0a1420"/>
    </linearGradient>
    <radialGradient id="cyan" cx="18%" cy="18%" r="45%">
      <stop offset="0" stop-color="#14d9f4" stop-opacity=".28"/>
      <stop offset="1" stop-color="#14d9f4" stop-opacity="0"/>
    </radialGradient>
    <radialGradient id="pink" cx="78%" cy="46%" r="40%">
      <stop offset="0" stop-color="#ff4aa2" stop-opacity=".18"/>
      <stop offset="1" stop-color="#ff4aa2" stop-opacity="0"/>
    </radialGradient>
    <pattern id="grid" width="56" height="56" patternUnits="userSpaceOnUse">
      <path d="M56 0H0V56" fill="none" stroke="#75f7ff" stroke-opacity=".11" stroke-width="1"/>
    </pattern>
  </defs>
  <rect width="1920" height="1080" fill="url(#bg)"/>
  <rect width="1920" height="1080" fill="url(#cyan)"/>
  <rect width="1920" height="1080" fill="url(#pink)"/>
  <rect width="1920" height="1080" fill="url(#grid)" opacity=".7"/>
  <rect x="150" y="130" width="1620" height="820" rx="10" fill="#07131f" fill-opacity=".72" stroke="#75f7ff" stroke-opacity=".45" stroke-width="2"/>
  <g font-family="Inter, Segoe UI, Arial, sans-serif" font-weight="900" letter-spacing="10">
    <text x="230" y="350" fill="#f5fbff" font-size="116">TETRIS</text>
    <text x="235" y="430" fill="#65f05b" font-size="72">HANDS</text>
  </g>
  <g font-family="Inter, Segoe UI, Arial, sans-serif" font-size="22" font-weight="800" letter-spacing="4">
    <rect x="230" y="520" width="390" height="62" rx="8" fill="#02070b" fill-opacity=".74" stroke="#14d9f4" stroke-width="2"/>
    <text x="265" y="560" fill="#f5fbff">SINGLE PLAYER</text>
    <rect x="230" y="598" width="390" height="62" rx="8" fill="#02070b" fill-opacity=".74" stroke="#ff4aa2" stroke-width="2"/>
    <text x="265" y="638" fill="#f5fbff">MULTIPLAYER</text>
    <rect x="230" y="676" width="390" height="62" rx="8" fill="#02070b" fill-opacity=".74" stroke="#ffc429" stroke-width="2"/>
    <text x="265" y="716" fill="#f5fbff">HOW TO PLAY</text>
  </g>
  <g transform="translate(1242 190)">
    <rect width="430" height="720" fill="#000" fill-opacity=".22" stroke="#75f7ff" stroke-opacity=".64" stroke-width="2"/>
    <g stroke="#75f7ff" stroke-opacity=".16" stroke-width="1">
      <path d="M43 0v720M86 0v720M129 0v720M172 0v720M215 0v720M258 0v720M301 0v720M344 0v720M387 0v720"/>
      <path d="M0 36h430M0 72h430M0 108h430M0 144h430M0 180h430M0 216h430M0 252h430M0 288h430M0 324h430M0 360h430M0 396h430M0 432h430M0 468h430M0 504h430M0 540h430M0 576h430M0 612h430M0 648h430M0 684h430"/>
    </g>
    <g>
      <rect x="32" y="324" width="48" height="48" rx="4" fill="#ffc429"/>
      <rect x="88" y="324" width="48" height="48" rx="4" fill="#ffc429"/>
      <rect x="144" y="324" width="48" height="48" rx="4" fill="#ff4aa2"/>
      <rect x="200" y="324" width="48" height="48" rx="4" fill="#65f05b"/>
      <rect x="256" y="324" width="48" height="48" rx="4" fill="#65f05b"/>
      <rect x="88" y="268" width="48" height="48" rx="4" fill="#ffc429"/>
      <rect x="144" y="268" width="48" height="48" rx="4" fill="#ff4aa2"/>
      <rect x="200" y="268" width="48" height="48" rx="4" fill="#ff4aa2"/>
      <rect x="256" y="268" width="48" height="48" rx="4" fill="#65f05b"/>
      <rect x="144" y="212" width="48" height="48" rx="4" fill="#14d9f4"/>
      <rect x="144" y="156" width="48" height="48" rx="4" fill="#14d9f4"/>
      <rect x="144" y="100" width="48" height="48" rx="4" fill="#14d9f4"/>
      <rect x="312" y="324" width="48" height="48" rx="4" fill="#14d9f4"/>
    </g>
  </g>
  <rect x="230" y="792" width="216" height="54" rx="8" fill="#02070b" fill-opacity=".72" stroke="#65f05b" stroke-width="2"/>
  <text x="257" y="827" fill="#65f05b" font-family="Inter, Segoe UI, Arial, sans-serif" font-size="18" font-weight="800" letter-spacing="3">CAMERA READY</text>
</svg>
